PathFileType	4	(X/Y/Z)	D:\TRACE\v60_Jaco2_6-2-23\BothDRS_Motion1_9-v60.trc
DataRate	CameraRate	NumFrames	NumMarkers	Units	OrigDataRate	OrigDataStartFrame	OrigNumFrames
100.00	100.00	      17	9	mm	100.00	1876	      7500
Frame#	Time	front left toe			Front right toe			aft left toe			aft right toe			Arm			FL body			FR body			AL Body			AR Body			
		X1	Y1	Z1	X2	Y2	Z2	X3	Y3	Z3	X4	Y4	Z4	X5	Y5	Z5	X6	Y6	Z6	X7	Y7	Z7	X8	Y8	Z8	X9	Y9	Z9	

1876	18.750	-120.49905	6.06036	-290.11920	276.89093	29.82386	-311.55823	-90.01896	53.73814	320.52170	261.26941	26.11332	333.17563	100.66306	1155.66003	-675.33539	4.92604	559.97400	-435.77170	164.39339	555.79425	-438.90179	20.91778	586.91681	509.76758	179.16368	576.77551	508.74496	
1877	18.760	-119.91537	6.11957	-289.78745	278.74011	22.07192	-311.71350	-88.31853	45.84488	320.78568	262.01578	25.86242	333.17749	102.15766	1155.66992	-675.44794	6.33433	560.03387	-436.20328	165.34479	555.82739	-439.45926	22.83092	586.48132	509.68021	181.23976	576.49756	508.71823	
1878	18.770	-119.35583	6.18003	-289.80396	280.74310	15.94823	-312.12048	-87.16540	39.02378	320.36847	262.93774	25.84685	333.28210	103.21684	1155.78577	-675.81622	7.58146	559.93274	-436.65714	167.18730	555.57477	-440.19211	24.91219	586.06879	508.72495	183.63817	575.72284	507.44360	
1879	18.780	-118.39207	6.05749	-289.82870	283.01569	9.78240	-312.73779	-85.64752	32.84550	319.75784	263.74417	25.73829	333.23630	104.42671	1155.80969	-676.21942	7.29308	560.44037	-437.93903	167.80894	555.44849	-440.66962	27.09965	585.64209	508.28806	185.77719	575.28571	506.96753	
1880	18.790	-117.73286	6.15961	-289.84430	283.50723	7.85005	-315.50345	-84.27131	26.78658	318.57489	264.29272	25.55448	333.26114	105.65948	1155.82959	-676.74524	9.60938	560.22784	-438.02957	169.07053	555.74469	-441.85556	29.66870	585.46490	507.85056	187.49396	575.16437	506.68161	
1881	18.800	-117.21604	6.47985	-289.74365	284.48093	4.98615	-315.33160	-83.90151	25.02001	316.55273	264.33850	24.99660	333.23267	106.92583	1156.20667	-677.33197	10.70389	560.92804	-438.42682	169.70071	556.26788	-442.32019	31.54270	585.21667	507.48087	190.12250	574.81335	505.31631	
1882	18.810	-117.56898	7.44697	-289.58032	285.21515	5.07936	-315.28665	-84.06073	23.68546	316.72580	264.74524	24.90967	333.10989	108.21725	1156.77966	-677.89929	10.39290	561.82965	-439.63907	170.92850	556.98163	-443.51196	33.73929	586.05756	506.43039	191.59657	575.65552	505.11957	
1883	18.820	-116.92931	7.88593	-289.75537	284.99045	5.59564	-315.37949	-83.81771	24.05523	317.45352	265.36069	25.26586	333.04211	109.15796	1157.65503	-678.63904	12.14572	562.25055	-439.42224	171.22363	557.24316	-443.79803	36.17671	588.03369	506.41064	193.83493	577.20709	503.70575	
1884	18.830	-115.62281	10.07236	-289.31348	285.38586	5.01454	-315.21484	-83.10774	24.37973	317.71823	265.59900	27.45772	333.34811	109.90322	1158.70813	-679.73688	11.91261	563.13831	-440.44287	172.39157	557.75897	-444.67053	38.59983	589.86456	506.09470	196.40042	578.66406	503.10693	
1885	18.840	-112.04681	13.37311	-286.51587	285.57623	5.06047	-315.27380	-82.50132	23.02341	318.11652	263.98270	30.33814	336.24423	110.59409	1159.40869	-681.32245	13.36111	563.53961	-439.88901	173.29524	558.68823	-445.08344	40.79453	591.04407	505.84647	198.28674	579.68945	502.36060	
1886	18.850	-106.42020	18.43415	-282.82986	285.75146	5.01287	-315.33820	-82.64438	23.67356	317.55542	262.10944	36.40803	339.95966	111.02242	1159.70898	-682.35052	13.25691	565.02521	-441.03006	173.81400	559.62433	-446.00681	42.89695	591.51099	504.80228	200.54707	579.96204	501.92606	
1887	18.860	-102.28384	27.53473	-282.39703	285.91400	4.92581	-315.56543	-82.17825	23.58793	317.45743	261.36478	44.92697	339.96161	111.66862	1159.37219	-682.73035	15.14937	565.39539	-440.97391	174.99553	559.62396	-446.57706	44.77402	591.96460	504.28281	202.63354	580.38544	501.83072	
1888	18.870	-100.55746	38.61594	-282.77173	286.39590	4.85512	-315.30240	-81.54142	23.37009	317.57822	261.69846	56.03614	339.20648	112.78873	1159.32947	-682.94049	16.28520	565.39496	-441.69971	176.01608	559.72394	-447.02878	46.45241	592.48718	504.21017	204.39412	580.51599	500.55426	
1889	18.880	-100.03814	50.42682	-284.56717	286.61429	4.80053	-315.17792	-81.56861	23.29510	317.68088	265.42010	67.21352	336.27655	114.27330	1159.85986	-683.29572	16.62076	565.31610	-442.43469	177.18501	559.77722	-447.63751	47.81975	592.42401	503.27356	202.21671	580.22565	498.56848	
1890	18.890	-99.53350	62.64240	-286.60214	286.97910	4.71291	-315.37561	-81.58620	23.11093	317.62073	271.08835	79.82777	333.08615	115.58836	1159.98340	-683.66724	18.25118	565.20551	-442.56631	177.90681	559.55359	-447.91501	49.04745	591.80957	503.02335	204.32346	579.67401	498.16980	
1891	18.900	-98.81394	75.18503	-288.99680	287.09637	4.67113	-315.15338	-81.48930	22.85207	317.67123	277.03134	91.18609	329.89490	116.81968	1159.74988	-683.70892	19.58301	564.91388	-443.00641	179.27316	559.34674	-448.01880	50.20739	591.09058	502.72116	209.78365	579.66766	500.51782	
1892	18.910	-96.21466	86.51778	-291.23587	287.36243	4.68209	-315.13992	-81.54179	22.56204	317.71844	282.83051	102.72269	327.20642	118.67793	1159.54321	-683.59137	20.45489	564.94800	-443.35034	180.46190	559.09344	-448.36835	51.09924	590.60748	502.58926	209.43011	579.29443	500.15552	
